<svg xmlns="http://www.w3.org/2000/svg" xmlns:bx="https://boxy-svg.com" viewBox="0 0 500 500" width="500px" height="500px"><defs fill="#242e24"><bx:export fill="#242e24"><bx:file format="svg" fill="#242e24"/></bx:export></defs><g transform="matrix(6.55448, 0, 0, 6.55448, -76.7736, -78.0845)" style=""><path d="M49.88,19.22c-8.51,0-16.22,3.45-21.8,9.03c-5.58,5.58-9.03,13.29-9.03,21.8s3.45,16.22,9.03,21.8   c5.58,5.58,13.29,9.03,21.8,9.03c8.51,0,16.22-3.45,21.8-9.03c5.58-5.58,9.03-13.29,9.03-21.8s-3.45-16.22-9.03-21.8   C66.1,22.67,58.39,19.22,49.88,19.22z M68.91,27.24L57.47,38.69l6.2-14.96C65.54,24.71,67.3,25.89,68.91,27.24z M52.55,20.46   c2.14,0.19,4.21,0.61,6.2,1.23l-6.2,14.96V20.46z M52.55,38.84l7-16.89c0.17,0.06,0.35,0.12,0.52,0.18l2.17,0.89   c0.23,0.1,0.45,0.21,0.68,0.32l-7,16.89l-3.36,3.36V38.84z M52.55,44.8l2.52-2.52l-1.37,3.31l-1.15,0.48V44.8z M53.75,48.77   l-0.39-0.16l0.16-0.39h0.77L53.75,48.77z M54.64,50.05l-0.69,0.29l-0.29-0.29l0.29-0.29L54.64,50.05z M53.75,51.33l0.55,0.55h-0.77   l-0.16-0.39L53.75,51.33z M55.14,52.72l2.52,2.52l-3.31-1.37l-0.48-1.15H55.14z M54.59,50.98l1.15-0.48l3.31,1.37h-3.57   L54.59,50.98z M55.74,49.6l-1.15-0.48l0.9-0.9h3.57L55.74,49.6z M55.14,47.38h-1.27l0.48-1.15l3.31-1.37L55.14,47.38z M52.55,46.97   l0.69-0.29l-0.29,0.69h-0.41V46.97z M53.06,49.45l-0.04-0.04l0.01-0.03l0.06,0.03L53.06,49.45z M53.1,50.69l-0.06,0.03l-0.01-0.03   l0.04-0.04L53.1,50.69z M52.55,48.22h0.06l-0.03,0.07l-0.03-0.01V48.22z M52.55,51.83l0.03-0.01l0.03,0.06h-0.06V51.83z    M52.55,52.72h0.41l0.29,0.69l-0.69-0.29V52.72z M52.55,54.04l1.15,0.48l1.37,3.31l-2.52-2.52V54.04z M48.05,40.88l1.37,3.31   l-0.48,1.15l-0.9-0.9V40.88z M49.29,46.87l-0.04,0.04l-0.03-0.01l0.03-0.06L49.29,46.87z M48.05,45.64l0.55,0.55l-0.16,0.39   l-0.39-0.16V45.64z M48.05,47.32l0.06,0.03l-0.01,0.03h-0.05V47.32z M48.05,52.72h0.05l0.01,0.03l-0.07,0.03V52.72z M48.05,53.69   l0.39-0.16l0.16,0.39l-0.55,0.55V53.69z M48.05,55.65l0.9-0.9l0.48,1.15l-1.37,3.31V55.65z M49.22,53.21l0.03-0.01l0.04,0.04   l-0.04,0.04L49.22,53.21z M36.1,23.73l6.2,14.96L30.85,27.24C32.46,25.89,34.22,24.71,36.1,23.73z M28.18,29.76l1.41-1.41   c0.2-0.19,0.41-0.38,0.62-0.56l12.93,12.93l1.83,4.41l-4.41-1.83L27.62,30.38C27.81,30.17,27.99,29.96,28.18,29.76z M44.02,49.6   l-3.31-1.37h3.57l0.9,0.9L44.02,49.6z M45.82,49.76l0.29,0.29l-0.29,0.29l-0.7-0.29L45.82,49.76z M44.02,50.51l1.15,0.48l-0.9,0.9   h-3.57L44.02,50.51z M44.63,52.72h1.27l-0.48,1.15l-3.31,1.37L44.63,52.72z M45.47,51.88l0.55-0.55l0.39,0.16l-0.16,0.39H45.47z    M46.02,48.77l-0.55-0.55h0.77l0.16,0.39L46.02,48.77z M44.63,47.38l-2.52-2.52l3.31,1.37l0.48,1.15H44.63z M27.07,31.02   l11.45,11.45l-14.96-6.2C24.54,34.39,25.72,32.63,27.07,31.02z M21.97,39.87l0.89-2.17c0.1-0.23,0.21-0.45,0.32-0.68l16.89,7   l3.36,3.36h-4.76l-16.89-7C21.84,40.21,21.9,40.04,21.97,39.87z M21.52,41.18l14.96,6.2H20.29C20.48,45.24,20.9,43.17,21.52,41.18z    M20.19,51.08v-2.07c0.01-0.27,0.02-0.53,0.04-0.79h18.29l4.41,1.83l-4.41,1.83H20.23C20.21,51.61,20.2,51.35,20.19,51.08z    M20.29,52.72h16.19l-14.96,6.2C20.9,56.93,20.48,54.86,20.29,52.72z M22.86,62.41l-0.89-2.17c-0.06-0.17-0.12-0.34-0.18-0.52   l16.89-7h4.76l-3.36,3.36l-16.89,7C23.07,62.86,22.96,62.63,22.86,62.41z M23.56,63.84l14.96-6.2L27.07,69.08   C25.72,67.47,24.54,65.71,23.56,63.84z M29.59,71.75l-1.41-1.41c-0.19-0.2-0.38-0.41-0.56-0.62L40.55,56.8l4.41-1.83l-1.83,4.41   L30.21,72.31C30,72.13,29.79,71.94,29.59,71.75z M30.85,72.86l11.45-11.45l-6.2,14.96C34.22,75.39,32.46,74.21,30.85,72.86z    M47.21,79.64c-2.14-0.19-4.21-0.61-6.2-1.23l6.2-14.96V79.64z M47.21,61.26l-7,16.89c-0.17-0.06-0.35-0.12-0.52-0.18l-2.17-0.89   c-0.23-0.1-0.45-0.21-0.68-0.32l7-16.89l3.36-3.36V61.26z M47.21,55.3l-2.52,2.52l1.37-3.31l1.15-0.48V55.3z M47.21,53.13   l-0.69,0.29l0.29-0.69h0.41V53.13z M46.7,50.65l0.04,0.04l-0.01,0.03l-0.06-0.03L46.7,50.65z M46.66,49.41l0.06-0.03l0.01,0.03   l-0.04,0.04L46.66,49.41z M47.21,51.88h-0.06l0.03-0.07l0.03,0.01V51.88z M47.21,48.28l-0.03,0.01l-0.03-0.06h0.06V48.28z    M47.21,47.38H46.8l-0.29-0.69l0.69,0.29V47.38z M47.21,46.06l-1.15-0.48l-1.37-3.31l2.52,2.52V46.06z M47.21,43.6l-3.36-3.36   l-7-16.89c0.22-0.11,0.45-0.22,0.68-0.32l2.17-0.89c0.17-0.06,0.34-0.12,0.52-0.18l7,16.89V43.6z M47.21,36.65l-6.2-14.96   c1.98-0.62,4.06-1.04,6.2-1.23V36.65z M51.71,79.7c-0.26,0.02-0.53,0.03-0.79,0.04h-2.07c-0.27-0.01-0.53-0.02-0.79-0.04V61.42   l1.83-4.41l1.83,4.41V79.7z M49.59,54.12l0.29-0.29l0.29,0.29l-0.29,0.7L49.59,54.12z M51.71,59.22l-1.37-3.31l0.48-1.15l0.9,0.9   V59.22z M50.48,53.23l0.04-0.04l0.03,0.01l-0.03,0.06L50.48,53.23z M51.71,54.46l-0.55-0.55l0.16-0.39l0.39,0.16V54.46z    M51.71,52.78l-0.06-0.03l0.01-0.03h0.05V52.78z M51.71,50.4l-0.29,0.7l-0.49,0.49l-0.7,0.29h-0.7l-0.7-0.29l-0.49-0.49l-0.29-0.7   v-0.7l0.29-0.7l0.49-0.49l0.7-0.29h0.7l0.7,0.29l0.49,0.49l0.29,0.7V50.4z M49.59,45.99l0.29-0.7l0.29,0.69l-0.29,0.29L49.59,45.99   z M50.48,46.87l0.04-0.04l0.03,0.06l-0.03,0.01L50.48,46.87z M51.71,47.38h-0.05l-0.01-0.03l0.06-0.03V47.38z M51.71,46.41   l-0.39,0.16l-0.16-0.39l0.55-0.55V46.41z M51.71,44.45l-0.9,0.9l-0.48-1.15l1.37-3.31V44.45z M51.71,38.68l-1.83,4.41l-1.83-4.41   V20.4c0.26-0.02,0.53-0.03,0.79-0.04h2.07c0.27,0.01,0.53,0.02,0.79,0.04V38.68z M52.55,79.64V63.45l6.2,14.96   C56.76,79.03,54.69,79.45,52.55,79.64z M62.24,77.08l-2.17,0.89c-0.17,0.06-0.34,0.12-0.52,0.18l-7-16.89V56.5l3.36,3.36l7,16.89   C62.69,76.86,62.46,76.97,62.24,77.08z M63.67,76.37l-6.2-14.96l11.45,11.45C67.3,74.21,65.54,75.39,63.67,76.37z M71.58,70.34   l-1.41,1.41c-0.2,0.19-0.41,0.38-0.62,0.56L56.63,59.38l-1.83-4.41l4.41,1.83l12.93,12.93C71.96,69.93,71.77,70.14,71.58,70.34z    M72.69,69.08L61.25,57.64l14.96,6.2C75.22,65.71,74.04,67.47,72.69,69.08z M77.8,60.24l-0.89,2.17c-0.1,0.23-0.21,0.45-0.32,0.68   l-16.89-7l-3.36-3.36h4.76l16.89,7C77.92,59.89,77.86,60.06,77.8,60.24z M78.24,58.92l-14.96-6.2h16.19   C79.28,54.86,78.86,56.93,78.24,58.92z M79.57,49.02v2.07c-0.01,0.27-0.02,0.53-0.04,0.79H61.25l-4.41-1.83l4.41-1.83h18.29   C79.55,48.49,79.56,48.75,79.57,49.02z M79.47,47.38H63.28l14.96-6.2C78.86,43.17,79.28,45.24,79.47,47.38z M76.91,37.69l0.89,2.17   c0.06,0.17,0.12,0.34,0.18,0.52l-16.89,7h-4.76l3.36-3.36l16.89-7C76.7,37.24,76.8,37.47,76.91,37.69z M76.2,36.27l-14.96,6.2   l11.45-11.45C74.04,32.63,75.22,34.39,76.2,36.27z M59.21,43.31l-4.41,1.83l1.83-4.41l12.93-12.93c0.21,0.18,0.41,0.37,0.62,0.56   l1.41,1.41c0.19,0.2,0.38,0.41,0.56,0.62L59.21,43.31z" fill="#242e24"/><path d="M86.89,52.81v-5.53H86c-0.04-0.53-0.09-1.05-0.15-1.57l0.86-0.17l-1.06-5.42l-0.88,0.17c-0.14-0.51-0.3-1.02-0.46-1.52   l0.81-0.34l-2.09-5.1l-0.83,0.34c-0.24-0.48-0.49-0.95-0.75-1.41l0.74-0.5l-3.07-4.58l-0.74,0.5c-0.33-0.42-0.66-0.83-1.01-1.23   l0.63-0.63l-3.91-3.91l-0.63,0.63c-0.4-0.34-0.81-0.68-1.23-1.01l0.5-0.74l-4.58-3.07l-0.5,0.74c-0.46-0.26-0.93-0.51-1.41-0.75   l0.34-0.83l-5.1-2.09l-0.34,0.81c-0.5-0.16-1.01-0.32-1.52-0.46l0.17-0.88l-5.42-1.06l-0.17,0.86c-0.52-0.06-1.05-0.11-1.57-0.15   v-0.89h-5.53v0.89c-0.53,0.04-1.05,0.09-1.57,0.16l-0.17-0.87l-5.42,1.06l0.17,0.88c-0.51,0.14-1.02,0.3-1.52,0.46l-0.34-0.81   l-5.1,2.09l0.34,0.83c-0.48,0.24-0.95,0.49-1.41,0.76l-0.5-0.74l-4.58,3.07l0.49,0.74c-0.42,0.33-0.82,0.66-1.23,1.01l-0.63-0.63   l-3.91,3.91l0.63,0.63c-0.34,0.4-0.68,0.81-1.01,1.23l-0.74-0.49l-3.07,4.58l0.74,0.5c-0.26,0.46-0.51,0.93-0.76,1.41l-0.83-0.34   l-2.09,5.1l0.81,0.34c-0.16,0.5-0.32,1.01-0.46,1.52l-0.88-0.17l-1.06,5.42l0.87,0.17c-0.06,0.52-0.12,1.05-0.16,1.57h-0.89v5.53   h0.89c0.04,0.53,0.09,1.05,0.15,1.57l-0.86,0.17l1.06,5.42l0.88-0.17c0.14,0.51,0.3,1.02,0.46,1.52l-0.81,0.34l2.09,5.1l0.83-0.34   c0.24,0.48,0.49,0.95,0.75,1.41l-0.74,0.5l3.07,4.58l0.74-0.5c0.33,0.42,0.66,0.83,1.01,1.23l-0.63,0.63l3.91,3.91l0.63-0.63   c0.4,0.34,0.81,0.68,1.23,1.01l-0.5,0.74l4.58,3.07l0.5-0.74c0.46,0.26,0.93,0.51,1.41,0.75l-0.34,0.83l5.1,2.09l0.34-0.81   c0.5,0.16,1.01,0.32,1.52,0.46l-0.17,0.88l5.42,1.06l0.17-0.86c0.52,0.06,1.05,0.11,1.57,0.15v0.89h5.53v-0.89   c0.53-0.04,1.05-0.09,1.57-0.16l0.17,0.87l5.42-1.06l-0.17-0.88c0.51-0.14,1.02-0.3,1.52-0.46l0.34,0.81l5.1-2.09l-0.34-0.83   c0.48-0.24,0.95-0.49,1.41-0.76l0.5,0.74l4.58-3.07l-0.49-0.74c0.42-0.33,0.82-0.66,1.23-1.01l0.63,0.63l3.91-3.91l-0.63-0.63   c0.34-0.4,0.68-0.81,1.01-1.23l0.74,0.49l3.07-4.58l-0.74-0.5c0.26-0.46,0.51-0.93,0.76-1.41l0.83,0.34l2.09-5.1l-0.81-0.34   c0.16-0.5,0.32-1.01,0.46-1.52l0.88,0.17l1.06-5.42l-0.87-0.17c0.06-0.52,0.12-1.05,0.16-1.57H86.89z M72.3,72.47   c-5.74,5.74-13.66,9.29-22.42,9.29c-8.75,0-16.68-3.55-22.42-9.29c-5.74-5.74-9.29-13.66-9.29-22.42c0-8.75,3.55-16.68,9.29-22.42   c5.74-5.74,13.66-9.29,22.42-9.29c8.75,0,16.68,3.55,22.42,9.29c5.74,5.74,9.29,13.66,9.29,22.42   C81.58,58.8,78.03,66.73,72.3,72.47z" fill="#242e24"/></g></svg>